# xmcd CD database file
#
# Track frame offsets:
#	150
#	3330
#	38040
#	56620
#	104204
#	122856
#	136483
#	166835
#	188039
#	212710
#	224193
#	253643
#
# Disc length: 3449 seconds
#
# Revision: 0
# Processed by: cddbd v1.4PL0 Copyright (c) Steve Scherf et al.
# Submitted via: CDex 1.50Beta7
#
DISCID=b60d770c
DTITLE=Brilliant Coroners - Brilliant Coroners
DYEAR=2001
DGENRE=Jazz
TTITLE0=Sixteen
TTITLE1=Blue Monk
TTITLE2=Brilliant Corners
TTITLE3=Evidence
TTITLE4=Misterioso
TTITLE5=Oska T.
TTITLE6=Well You Needn't/Straight, No Chaser
TTITLE7='Round Midnight
TTITLE8=Skippy
TTITLE9=Crepescule With Nellie
TTITLE10=Epistrophy
TTITLE11=Bemsha Swing
EXTD=YEAR: 2001
EXTT0=
EXTT1=
EXTT2=
EXTT3=
EXTT4=
EXTT5=
EXTT6=
EXTT7=
EXTT8=
EXTT9=
EXTT10=
EXTT11=
PLAYORDER=
